<svg width="25" height="6" viewBox="0 0 25 6" fill="none" xmlns="http://www.w3.org/2000/svg">
<path fill-rule="evenodd" clip-rule="evenodd" d="M3.2002 0C4.85705 0 6.2002 1.34314 6.2002 3C6.2002 4.65688 4.85706 6 3.2002 6C1.54334 6 0.200195 4.65688 0.200195 3C0.200195 1.34314 1.54334 0 3.2002 0ZM3.2002 1.63637C2.44709 1.63637 1.83656 2.24684 1.83656 3.00001C1.83656 3.75306 2.44709 4.36364 3.2002 4.36364C3.95332 4.36364 4.56383 3.75306 4.56383 3.00001C4.56383 2.24684 3.95332 1.63637 3.2002 1.63637Z" fill="#7F7F7F"/>
<path fill-rule="evenodd" clip-rule="evenodd" d="M12.2002 0C13.857 0 15.2002 1.34314 15.2002 3C15.2002 4.65688 13.8571 6 12.2002 6C10.5433 6 9.2002 4.65688 9.2002 3C9.2002 1.34314 10.5433 0 12.2002 0ZM12.2002 1.63637C11.4471 1.63637 10.8366 2.24684 10.8366 3.00001C10.8366 3.75306 11.4471 4.36364 12.2002 4.36364C12.9533 4.36364 13.5638 3.75306 13.5638 3.00001C13.5638 2.24684 12.9533 1.63637 12.2002 1.63637Z" fill="#7F7F7F"/>
<path fill-rule="evenodd" clip-rule="evenodd" d="M21.2002 0C22.857 0 24.2002 1.34314 24.2002 3C24.2002 4.65688 22.8571 6 21.2002 6C19.5433 6 18.2002 4.65688 18.2002 3C18.2002 1.34314 19.5433 0 21.2002 0ZM21.2002 1.63637C20.4471 1.63637 19.8366 2.24684 19.8366 3.00001C19.8366 3.75306 20.4471 4.36364 21.2002 4.36364C21.9533 4.36364 22.5638 3.75306 22.5638 3.00001C22.5638 2.24684 21.9533 1.63637 21.2002 1.63637Z" fill="#7F7F7F"/>
</svg>
