<svg width="19" height="19" viewBox="0 0 19 19" fill="none" xmlns="http://www.w3.org/2000/svg">
<path d="M14.7377 15.0913L14.4131 14.7667L14.0621 15.0625C12.6266 16.2718 10.774 17 8.75 17C4.19365 17 0.5 13.3064 0.5 8.75C0.5 4.19365 4.19365 0.5 8.75 0.5C13.3064 0.5 17 4.19365 17 8.75C17 10.774 16.2718 12.6266 15.0625 14.0621L14.7667 14.4131L15.0913 14.7377L17.9267 17.5732L18.2803 17.2197L17.9267 17.5733C18.0244 17.6709 18.0244 17.8291 17.9267 17.9267C17.8291 18.0244 17.6709 18.0244 17.5733 17.9267L17.2197 18.2803L17.5732 17.9267L14.7377 15.0913ZM8.75 1C4.4698 1 1 4.4698 1 8.75C1 13.0302 4.4698 16.5 8.75 16.5C13.0302 16.5 16.5 13.0302 16.5 8.75C16.5 4.4698 13.0302 1 8.75 1Z" fill="#7F7F7F" stroke="#7F7F7F"/>
</svg>
